# xmcd
#
# Track frame offsets: 
#        150
#        10585
#        22257
#        31637
#        45255
#        58596
#        72289
#        82006
#        93859
#        106543
#        119087
#        131119
#        142383
#        156167
#
# Disc length: 2225 seconds
#
# Revision: 1
# Processed by: cddbd v1.5.2PL0 Copyright (c) Steve Scherf et al.
# Submitted via: ExactAudioCopy v1.0b3
#
DISCID=b708af0e
DTITLE=Roy Gaines - Rock-A-Billy, Boogie Woogie Blues Man
DYEAR=2005
DGENRE=Blues
TTITLE0=Skippy Is A Sissy
TTITLE1=Isabella
TTITLE2=You're Right, I'm Left
TTITLE3=Gainesville
TTITLE4=Oh Annabelle
TTITLE5=Loud Mouth Lucy
TTITLE6=Dee Dat Dee Dum Dum
TTITLE7=Right Now Baby
TTITLE8=All Of My Life
TTITLE9=I'm Going Set You Free
TTITLE10=Worried 'Bout You Baby
TTITLE11=Stolen Moments
TTITLE12=Night Beat
TTITLE13=Black Gal
EXTD=
EXTT0=
EXTT1=
EXTT2=
EXTT3=
EXTT4=
EXTT5=
EXTT6=
EXTT7=
EXTT8=
EXTT9=
EXTT10=
EXTT11=
EXTT12=
EXTT13=
PLAYORDER=
